<svg version="1.0" xmlns="http://www.w3.org/2000/svg"
 width="24.000000pt" height="24.000000pt" viewBox="0 0 24.000000 24.000000"
 preserveAspectRatio="xMidYMid meet">

<g transform="translate(0.000000,24.000000) scale(0.100000,-0.100000)"
fill="#000000" stroke="none">
<path d="M32 208 c-16 -16 -16 -160 0 -176 7 -7 42 -12 88 -12 46 0 81 5 88
12 16 16 16 160 0 176 -16 16 -160 16 -176 0z m148 -88 l0 -60 -60 0 -60 0 0
60 0 60 60 0 60 0 0 -60z"/>
<path d="M90 120 c0 -27 3 -30 30 -30 27 0 30 3 30 30 0 27 -3 30 -30 30 -27
0 -30 -3 -30 -30z"/>
</g>
</svg>